<?xml version="1.0" encoding="utf-8"?>
<!-- Generator: Adobe Illustrator 19.0.0, SVG Export Plug-In . SVG Version: 6.00 Build 0)  -->
<svg version="1.1" id="Capa_1" xmlns="http://www.w3.org/2000/svg" xmlns:xlink="http://www.w3.org/1999/xlink" x="0px" y="0px"
	 viewBox="-910 502.8 98 76.2" style="enable-background:new -910 502.8 98 76.2;" xml:space="preserve">
<style type="text/css">
	.st0{fill:#FFFFFF;}
</style>
<g>
	<g id="iconos_35_">
		<path class="st0" d="M-876.2,566.7c0-6.8-5.5-12.3-12.3-12.3c-6.8,0-12.3,5.5-12.3,12.3s5.5,12.3,12.3,12.3
			C-881.7,578.9-876.2,573.4-876.2,566.7z M-892.5,566.7c0-2.2,1.8-4,4-4c2.2,0,4,1.8,4,4s-1.8,4-4,4
			C-890.7,570.7-892.5,568.9-892.5,566.7z"/>
		<path class="st0" d="M-847.1,525.5v25c0,0,0.7-0.2,4-0.2c7.5,0,11.3,3.7,13.2,6.6c1-1,2.3-1.6,3.8-1.6h12.3v-18.4l-7.4-11.4
			H-847.1z M-819.1,544.7h-14v-14h10.5l3.5,5.6V544.7z"/>
		<path class="st0" d="M-904.9,542.9c0,0,28.9,5.4,32.7,19.3h13.2c0,0,1.6-8.8,8.4-11.2V522h30.8l5.1-7h-39.2l-4.8,10.5H-910v7h5.3
			L-904.9,542.9z"/>
		<path class="st0" d="M-826.1,558.7c-0.8,0-1.5,0.6-1.7,1.3c0,0.1-0.1,0.3-0.1,0.4v3.5c0,1,0.8,1.8,1.8,1.8h12.3
			c1,0,1.8-0.8,1.8-1.8v-3.5c0-1-0.8-1.8-1.8-1.8L-826.1,558.7L-826.1,558.7z"/>
		<path class="st0" d="M-830.8,566.7c0-0.2,0-0.3,0-0.5c0-1.1-0.2-2.1-0.5-3.1c-1.5-5-6.2-8.6-11.7-8.6c-6.8,0-12.3,5.5-12.3,12.3
			c0,6.8,5.5,12.3,12.3,12.3C-836.2,579.1-830.8,573.4-830.8,566.7z M-847.1,566.7c0-2.2,1.8-4,4-4c2.2,0,4,1.8,4,4s-1.8,4-4,4
			C-845.3,570.7-847.1,568.9-847.1,566.7z"/>
		<polygon class="st0" points="-858.2,514.2 -860,509.8 -865.2,509.8 -869.8,502.8 -876.5,502.8 -883.8,511.5 -889.3,511.5 
			-894.3,516.8 -898,516.8 -903.9,522 -861.9,522 		"/>
	</g>
</g>
</svg>
